<?xml version="1.0" encoding="UTF-8"?>
<svg width="159px" height="44px" viewBox="0 0 159 44" version="1.1" xmlns="http://www.w3.org/2000/svg" xmlns:xlink="http://www.w3.org/1999/xlink">
    <title>logo</title>
    <g id="Page-1" stroke="none" stroke-width="1" fill="none" fill-rule="evenodd">
        <g id="Story" transform="translate(-116.000000, -770.000000)" fill="#FFFFFF" fill-rule="nonzero">
            <g id="logo" transform="translate(116.000000, 770.000000)">
                <path d="M69.4878049,30 C71.9268293,30 74.0813008,29.577748 75.9512195,28.733244 C77.8211382,27.8887399 79.3929539,26.7426273 80.6666667,25.2949062 L80.6666667,25.2949062 L75.8292683,20.7908847 C75.2059621,21.6487936 74.3794038,22.3458445 73.3495935,22.8820375 C72.3197832,23.4182306 71.1138211,23.6863271 69.7317073,23.6863271 C68.5392954,23.6863271 67.4417344,23.4718499 66.4390244,23.0428954 C65.4363144,22.613941 64.5758808,22.0174263 63.8577236,21.2533512 C63.1395664,20.4892761 62.5772358,19.5710456 62.1707317,18.4986595 C61.7642276,17.4262735 61.5609756,16.2466488 61.5609756,14.9597855 C61.5609756,13.6997319 61.7642276,12.5402145 62.1707317,11.4812332 C62.5772358,10.422252 63.1463415,9.50402145 63.8780488,8.72654155 C64.6097561,7.94906166 65.4837398,7.33914209 66.5,6.89678284 C67.5162602,6.45442359 68.6341463,6.23324397 69.8536585,6.23324397 C70.9647696,6.23324397 72.0487805,6.44772118 73.1056911,6.8766756 C74.1626016,7.30563003 75.0162602,7.96246649 75.6666667,8.84718499 L75.6666667,8.84718499 L80.3821138,4.18230563 C79.1626016,2.8150134 77.5704607,1.77613941 75.6056911,1.06568365 C73.6409214,0.355227882 71.6422764,0 69.6097561,0 C67.4146341,0 65.3685637,0.348525469 63.4715447,1.04557641 C61.5745257,1.74262735 59.9214092,2.74128686 58.5121951,4.04155496 C57.102981,5.34182306 55.998645,6.91689008 55.199187,8.76675603 C54.399729,10.616622 54,12.6809651 54,14.9597855 C54,17.1849866 54.3929539,19.2225201 55.1788618,21.0723861 C55.9647696,22.922252 57.0487805,24.5107239 58.4308943,25.8378016 C59.8130081,27.1648794 61.4457995,28.1903485 63.3292683,28.9142091 C65.2127371,29.6380697 67.2655827,30 69.4878049,30 Z M87.8259577,29.1780822 L89.9439674,23.6109821 L101.104249,23.6109821 L103.344452,29.1780822 L111.083333,29.1780822 L99.1084324,0.821917808 L92.3470938,0.821917808 L80.25,29.1780822 L87.8259577,29.1780822 Z M99,18.0821918 L91.9166667,18.0821918 L95.4981273,8.21917808 L99,18.0821918 Z M120.474525,29.1780822 L120.474525,17.9237288 L122.853627,17.9237288 L129.129534,29.1780822 L137.333333,29.1780822 L129.744819,17.0426051 C131.631693,16.4818899 133.108377,15.5473648 134.17487,14.2390295 C135.241364,12.9306942 135.774611,11.3153007 135.774611,9.39284885 C135.774611,7.76410495 135.460132,6.40236824 134.831174,5.30763873 C134.202216,4.21290922 133.361327,3.33178547 132.308506,2.66426747 C131.255685,1.99674948 130.066134,1.5228117 128.739853,1.24245414 C127.413572,0.962096587 126.053109,0.821917808 124.658463,0.821917808 L124.658463,0.821917808 L113.583333,0.821917808 L113.583333,29.1780822 L120.474525,29.1780822 Z M123.542683,13.1506849 L120.25,13.1506849 L120.25,6.57534247 L123.949187,6.57534247 C124.464092,6.57534247 124.999322,6.61519303 125.554878,6.69489415 C126.110434,6.77459527 126.611789,6.92735575 127.058943,7.15317559 C127.506098,7.37899543 127.871951,7.69779992 128.156504,8.10958904 C128.441057,8.52137817 128.583333,9.05936073 128.583333,9.72353674 C128.583333,10.4408468 128.427507,11.0253217 128.115854,11.4769614 C127.804201,11.9286011 127.404472,12.2739726 126.916667,12.513076 C126.428862,12.7521793 125.886856,12.9182233 125.29065,13.011208 C124.694444,13.1041926 124.111789,13.1506849 123.542683,13.1506849 L123.542683,13.1506849 Z M159,29.1780822 L159,23.2104713 L147.736921,23.2104713 L147.736921,0.821917808 L140.666667,0.821917808 L140.666667,29.1780822 L159,29.1780822 Z" id="CARL"></path>
                <path d="M59.1455224,44 L59.1455224,36.1059322 L62.0321285,36.1059322 L62.0321285,35 L55,35 L55,36.1059322 L57.8866061,36.1059322 L57.8866061,44 L59.1455224,44 Z M64.522968,44 L64.522968,39.8813559 L69.0427203,39.8813559 L69.0427203,44 L70.3052209,44 L70.3052209,35 L69.0427203,35 L69.0427203,38.7627119 L64.522968,38.7627119 L64.522968,35 L63.2730924,35 L63.2730924,44 L64.522968,44 Z M78.5783133,44 L78.5783133,42.8813559 L73.6832533,42.8813559 L73.6832533,39.8813559 L78.1020371,39.8813559 L78.1020371,38.8008475 L73.6832533,38.8008475 L73.6832533,36.1059322 L78.3798649,36.1059322 L78.3798649,35 L72.373494,35 L72.373494,44 L78.5783133,44 Z M86.6325583,44 C87.1188857,44 87.5764756,43.9470339 88.0053279,43.8411017 C88.4341803,43.7351695 88.8077681,43.5783898 89.1260915,43.3707627 C89.4444149,43.1631356 89.696421,42.8983051 89.8821096,42.5762712 C90.0677982,42.2542373 90.1606426,41.8771186 90.1606426,41.4449153 C90.1606426,41.1313559 90.1097993,40.8474576 90.0081126,40.5932203 C89.906426,40.3389831 89.7627383,40.1186441 89.5770497,39.9322034 C89.391361,39.7457627 89.1703031,39.595339 88.9138759,39.4809322 C88.6574488,39.3665254 88.3789158,39.2923729 88.078277,39.2584746 L88.078277,39.2584746 L88.078277,39.2330508 C88.5734468,39.1059322 88.971351,38.8728814 89.2719898,38.5338983 C89.5726285,38.1949153 89.7229479,37.7754237 89.7229479,37.2754237 C89.7229479,36.8432203 89.6367353,36.4830508 89.4643101,36.1949153 C89.291885,35.9067797 89.0664059,35.6737288 88.7878729,35.4957627 C88.50934,35.3177966 88.1932272,35.190678 87.8395345,35.1144068 C87.4858418,35.0381356 87.1321492,35 86.7784565,35 L86.7784565,35 L83.5421687,35 L83.5421687,44 L86.6325583,44 Z M86.3760115,38.6818182 L84.7831325,38.6818182 L84.7831325,35.8181818 L86.1784451,35.8181818 C86.7629123,35.8181818 87.2280165,35.926452 87.5737577,36.1429924 C87.9194989,36.3595328 88.0923695,36.719697 88.0923695,37.2234848 C88.0923695,37.479798 88.0470938,37.698548 87.9565426,37.8797348 C87.8659913,38.0609217 87.7425123,38.2111742 87.5861056,38.3304924 C87.4296989,38.4498106 87.2465384,38.5381944 87.0366241,38.5956439 C86.8267098,38.6530934 86.6065056,38.6818182 86.3760115,38.6818182 L86.3760115,38.6818182 Z M86.3219277,42.7727273 L84.7831325,42.7727273 L84.7831325,39.9090909 L86.4336145,39.9090909 C87.1037349,39.9090909 87.6166667,40.0199925 87.9724096,40.2417955 C88.3281526,40.4635986 88.5060241,40.8240287 88.5060241,41.3230856 C88.5060241,41.608261 88.4419076,41.8439268 88.3136747,42.030083 C88.1854418,42.2162392 88.0158434,42.364768 87.8048795,42.4756696 C87.5939157,42.5865711 87.3581325,42.6638061 87.0975301,42.7073746 C86.8369277,42.750943 86.5783936,42.7727273 86.3219277,42.7727273 L86.3219277,42.7727273 Z M92.0023203,44 L92.9240443,41.7881356 L97.2860056,41.7881356 L98.2207117,44 L99.6746988,44 L95.7281623,35 L94.5597798,35 L90.5742972,44 L92.0023203,44 Z M96.7791165,40.7272727 L93.4698795,40.7272727 L95.1307418,36.6363636 L96.7791165,40.7272727 Z M102.213146,44 L102.213146,39.9957627 L103.60237,39.9957627 L105.96143,44 L107.534137,44 L104.939171,39.8686441 C105.603202,39.7584746 106.144912,39.5 106.564301,39.0932203 C106.983689,38.6864407 107.193383,38.1525424 107.193383,37.4915254 C107.193383,37.0338983 107.106011,36.6461864 106.931266,36.3283898 C106.75652,36.0105932 106.51843,35.7542373 106.216995,35.559322 C105.915559,35.3644068 105.563885,35.2224576 105.161971,35.1334746 C104.760057,35.0444915 104.3363,35 103.890699,35 L103.890699,35 L100.915663,35 L100.915663,44 L102.213146,44 Z M103.672375,39.0909091 L102.156627,39.0909091 L102.156627,36.2272727 L103.765448,36.2272727 C104.049096,36.2272727 104.319449,36.2505028 104.576506,36.296963 C104.833563,36.3434232 105.05738,36.4215607 105.247956,36.5313757 C105.438533,36.6411907 105.591437,36.7869067 105.70667,36.9685237 C105.821902,37.1501408 105.879518,37.3761062 105.879518,37.64642 C105.879518,37.9167337 105.821902,38.1426991 105.70667,38.3243162 C105.591437,38.5059332 105.434101,38.6537611 105.23466,38.7677997 C105.035219,38.8818383 104.802539,38.9641995 104.536618,39.0148833 C104.270697,39.0655672 103.982616,39.0909091 103.672375,39.0909091 L103.672375,39.0909091 Z M112.093314,44 L112.093314,36.1059322 L114.97992,36.1059322 L114.97992,35 L107.947791,35 L107.947791,36.1059322 L110.834397,36.1059322 L110.834397,44 L112.093314,44 Z M122.425703,44 L122.425703,42.8813559 L117.530643,42.8813559 L117.530643,39.8813559 L121.949427,39.8813559 L121.949427,38.8008475 L117.530643,38.8008475 L117.530643,36.1059322 L122.227254,36.1059322 L122.227254,35 L116.220884,35 L116.220884,44 L122.425703,44 Z M124.963474,44 L124.963474,36.6525424 L124.989672,36.6525424 L129.888722,44 L131.526104,44 L131.526104,35 L130.229297,35 L130.229297,42.1949153 L130.203099,42.1949153 L125.356446,35 L123.666667,35 L123.666667,44 L124.963474,44 Z M137.063782,44 C137.633853,44 138.203924,43.9088983 138.773995,43.7266949 C139.344066,43.5444915 139.859646,43.2690678 140.320733,42.9004237 C140.78182,42.5317797 141.154881,42.065678 141.439916,41.5021186 C141.724952,40.9385593 141.86747,40.2711864 141.86747,39.5 C141.86747,38.7033898 141.724952,38.0211864 141.439916,37.4533898 C141.154881,36.8855932 140.78182,36.4194915 140.320733,36.0550847 C139.859646,35.690678 139.344066,35.4237288 138.773995,35.2542373 C138.203924,35.0847458 137.633853,35 137.063782,35 L137.063782,35 L134.008032,35 L134.008032,44 L137.063782,44 Z M136.836642,42.7727273 L135.248996,42.7727273 L135.248996,35.8181818 L136.836642,35.8181818 C137.382929,35.8181818 137.888671,35.8940102 138.353868,36.0456669 C138.819065,36.1973237 139.220244,36.4183093 139.557406,36.7086236 C139.894567,36.998938 140.157041,37.3607477 140.344827,37.7940527 C140.532613,38.2273577 140.626506,38.7299915 140.626506,39.3019541 C140.626506,39.8479184 140.532613,40.3375531 140.344827,40.7708581 C140.157041,41.2041631 139.894567,41.5681393 139.557406,41.8627867 C139.220244,42.1574342 138.819065,42.3827528 138.353868,42.5387426 C137.888671,42.6947324 137.382929,42.7727273 136.836642,42.7727273 L136.836642,42.7727273 Z M149.726908,44 L149.726908,42.8813559 L144.831848,42.8813559 L144.831848,39.8813559 L149.250632,39.8813559 L149.250632,38.8008475 L144.831848,38.8008475 L144.831848,36.1059322 L149.528459,36.1059322 L149.528459,35 L143.522088,35 L143.522088,44 L149.726908,44 Z M152.679009,44 L152.679009,39.9957627 L154.068233,39.9957627 L156.427293,44 L158,44 L155.405034,39.8686441 C156.069066,39.7584746 156.610776,39.5 157.030164,39.0932203 C157.449553,38.6864407 157.659247,38.1525424 157.659247,37.4915254 C157.659247,37.0338983 157.571874,36.6461864 157.397129,36.3283898 C157.222384,36.0105932 156.984294,35.7542373 156.682858,35.559322 C156.381423,35.3644068 156.029748,35.2224576 155.627834,35.1334746 C155.22592,35.0444915 154.802163,35 154.356563,35 L154.356563,35 L151.381526,35 L151.381526,44 L152.679009,44 Z M154.138239,39.0909091 L152.62249,39.0909091 L152.62249,36.2272727 L154.231311,36.2272727 C154.51496,36.2272727 154.785313,36.2505028 155.042369,36.296963 C155.299426,36.3434232 155.523243,36.4215607 155.71382,36.5313757 C155.904396,36.6411907 156.057301,36.7869067 156.172533,36.9685237 C156.287765,37.1501408 156.345382,37.3761062 156.345382,37.64642 C156.345382,37.9167337 156.287765,38.1426991 156.172533,38.3243162 C156.057301,38.5059332 155.899964,38.6537611 155.700524,38.7677997 C155.501083,38.8818383 155.268402,38.9641995 155.002481,39.0148833 C154.736561,39.0655672 154.44848,39.0909091 154.138239,39.0909091 L154.138239,39.0909091 Z" id="THEBARTENDER"></path>
                <g id="liquor_FILL0_wght400_GRAD0_opsz48">
                    <path d="M0,44 L0,40.7 L4.41315789,40.7 L4.41315789,32.945 C3.09298246,32.5783333 2.02741228,31.8725 1.21644737,30.8275 C0.405482456,29.7825 0,28.5633333 0,27.17 L0,8.8 L12.2210526,8.8 L12.2210526,27.17 C12.2210526,28.4533333 11.8155702,29.645 11.0046053,30.745 C10.1936404,31.845 9.12807018,32.5783333 7.80789474,32.945 L7.80789474,40.7 L12.2210526,40.7 L12.2210526,44 L0,44 Z M3.39473684,20.955 L8.82631579,20.955 L8.82631579,12.1 L3.39473684,12.1 L3.39473684,20.955 Z M6.11052632,29.81 C6.82719298,29.81 7.45899123,29.5441667 8.00592105,29.0125 C8.55285088,28.4808333 8.82631579,27.8666667 8.82631579,27.17 L8.82631579,24.255 L3.39473684,24.255 L3.39473684,27.17 C3.39473684,27.8666667 3.66820175,28.4808333 4.21513158,29.0125 C4.7620614,29.5441667 5.39385965,29.81 6.11052632,29.81 Z M22.6315789,44 C21.7263158,44 20.9342105,43.67 20.2552632,43.01 C19.5763158,42.35 19.2368421,41.58 19.2368421,40.7 L19.2368421,18.26 C19.2368421,17.5266667 19.4442982,16.94 19.8592105,16.5 C20.2741228,16.06 20.8587719,15.675 21.6131579,15.345 L23.7631579,14.41 C24.6684211,14.0066667 25.3285088,13.5116667 25.7434211,12.925 C26.1583333,12.3383333 26.3657895,11.6233333 26.3657895,10.78 L26.3657895,1.925 C26.3657895,1.33833333 26.5449561,0.870833333 26.9032895,0.5225 C27.2616228,0.174166667 27.7425439,0 28.3460526,0 L33.6644737,0 C34.2679825,0 34.7489035,0.174166667 35.1072368,0.5225 C35.4655702,0.870833333 35.6447368,1.33833333 35.6447368,1.925 L35.6447368,10.78 C35.6447368,11.6233333 35.8993421,12.3383333 36.4085526,12.925 C36.9177632,13.5116667 37.625,14.0066667 38.5302632,14.41 L40.6802632,15.345 C41.3969298,15.6383333 41.9627193,16.0141667 42.3776316,16.4725 C42.7925439,16.9308333 43,17.5266667 43,18.26 L43,40.7 C43,41.58 42.6605263,42.35 41.9815789,43.01 C41.3026316,43.67 40.5105263,44 39.6052632,44 L22.6315789,44 Z M29.7605263,5.72 L32.25,5.72 L32.25,3.3 L29.7605263,3.3 L29.7605263,5.72 Z M22.6315789,22.825 L39.6052632,22.825 L39.6052632,18.26 L37.2289474,17.38 C35.7201754,16.83 34.5131579,15.9316667 33.6078947,14.685 C32.7026316,13.4383333 32.25,12.0633333 32.25,10.56 L32.25,9.02 L29.7605263,9.02 L29.7605263,10.56 C29.7605263,12.0633333 29.3361842,13.3833333 28.4875,14.52 C27.6388158,15.6566667 26.497807,16.5366667 25.0644737,17.16 L22.6315789,18.26 L22.6315789,22.825 Z M22.6315789,40.7 L39.6052632,40.7 L39.6052632,35.035 L22.6315789,35.035 L22.6315789,40.7 Z M22.6315789,31.735 L39.6052632,31.735 L39.6052632,26.125 L22.6315789,26.125 L22.6315789,31.735 Z M22.6315789,31.735 L22.6315789,26.125 L22.6315789,31.735 Z" id="Shape"></path>
                </g>
            </g>
        </g>
    </g>
</svg>